<svg width="48" height="44" viewBox="0 0 48 44" fill="none" xmlns="http://www.w3.org/2000/svg">
<ellipse cx="1.66656" cy="1.66655" rx="1.66656" ry="1.66655" fill="#C4C4C4"/>
<ellipse cx="1.66656" cy="28.3313" rx="1.66656" ry="1.66655" fill="#C4C4C4"/>
<ellipse cx="30.3311" cy="1.66655" rx="1.66656" ry="1.66655" fill="#C4C4C4"/>
<ellipse cx="30.3311" cy="28.3313" rx="1.66656" ry="1.66655" fill="#C4C4C4"/>
<ellipse cx="1.66656" cy="14.9989" rx="1.66656" ry="1.66655" fill="#C4C4C4"/>
<ellipse cx="1.66656" cy="41.6636" rx="1.66656" ry="1.66655" fill="#C4C4C4"/>
<ellipse cx="30.3311" cy="14.9989" rx="1.66656" ry="1.66655" fill="#C4C4C4"/>
<ellipse cx="30.3311" cy="41.6636" rx="1.66656" ry="1.66655" fill="#C4C4C4"/>
<ellipse cx="16.9985" cy="1.66655" rx="1.66656" ry="1.66655" fill="#C4C4C4"/>
<ellipse cx="16.9985" cy="28.3313" rx="1.66656" ry="1.66655" fill="#C4C4C4"/>
<ellipse cx="45.6634" cy="1.66655" rx="1.66656" ry="1.66655" fill="#C4C4C4"/>
<ellipse cx="45.6634" cy="28.3313" rx="1.66656" ry="1.66655" fill="#C4C4C4"/>
<ellipse cx="16.9985" cy="14.9989" rx="1.66656" ry="1.66655" fill="#C4C4C4"/>
<ellipse cx="16.9985" cy="41.6636" rx="1.66656" ry="1.66655" fill="#C4C4C4"/>
<ellipse cx="45.6634" cy="14.9989" rx="1.66656" ry="1.66655" fill="#C4C4C4"/>
<ellipse cx="45.6634" cy="41.6636" rx="1.66656" ry="1.66655" fill="#C4C4C4"/>
</svg>
